<svg width="31" height="30" viewBox="0 0 31 30" fill="none" xmlns="http://www.w3.org/2000/svg">
<g id="maximize-02">
<path id="Icon" d="M10.3333 3.72H10.075C7.9048 3.72 6.81969 3.72 5.99079 4.12546C5.26166 4.48211 4.66886 5.05119 4.29735 5.75116C3.875 6.54691 3.875 7.58861 3.875 9.672V9.92M10.3333 26.04H10.075C7.9048 26.04 6.81969 26.04 5.99079 25.6345C5.26166 25.2779 4.66886 24.7088 4.29735 24.0088C3.875 23.2131 3.875 22.1714 3.875 20.088V19.84M27.125 9.92V9.672C27.125 7.58861 27.125 6.54691 26.7026 5.75116C26.3311 5.05119 25.7383 4.48211 25.0092 4.12546C24.1803 3.72 23.0952 3.72 20.925 3.72H20.6667M27.125 19.84V20.088C27.125 22.1714 27.125 23.2131 26.7026 24.0088C26.3311 24.7088 25.7383 25.2779 25.0092 25.6345C24.1803 26.04 23.0952 26.04 20.925 26.04H20.6667" stroke="white" stroke-width="2" stroke-linecap="round" stroke-linejoin="round"/>
</g>
</svg>
